Peel 2.ufo
<glyph name="exclam" format="1">
  <advance width="607"/>
  <unicode hex="0021"/>
  <outline>
    <contour>
      <point x="304" y="403" type="curve" smooth="yes"/>
      <point x="318" y="403"/>
      <point x="333" y="421"/>
      <point x="336" y="458" type="curve" smooth="yes"/>
      <point x="423" y="1515" type="line"/>
      <point x="423" y="1526" type="line" smooth="yes"/>
      <point x="423" y="1594"/>
      <point x="370" y="1627"/>
      <point x="315" y="1627" type="curve" smooth="yes"/>
      <point x="259" y="1627"/>
      <point x="202" y="1592"/>
      <point x="202" y="1522" type="curve" smooth="yes"/>
      <point x="202" y="1515" type="line"/>
      <point x="274" y="461" type="line"/>
      <point x="276" y="421"/>
      <point x="290" y="403"/>
    </contour>
    <contour>
      <point x="302" y="-18" type="curve" smooth="yes"/>
      <point x="366" y="-18"/>
      <point x="432" y="24"/>
      <point x="432" y="109" type="curve" smooth="yes"/>
      <point x="432" y="197"/>
      <point x="366" y="242"/>
      <point x="302" y="242" type="curve" smooth="yes"/>
      <point x="237" y="242"/>
      <point x="172" y="198"/>
      <point x="172" y="109" type="curve" smooth="yes"/>
      <point x="172" y="24"/>
      <point x="237" y="-18"/>
    </contour>
  </outline>
</glyph>
<glyph name="parenright" format="1">
  <advance width="656"/>
  <unicode hex="0029"/>
  <outline>
    <contour>
      <point x="200" y="-108" type="line"/>
      <point x="458" y="60"/>
      <point x="586" y="411"/>
      <point x="586" y="760" type="curve" smooth="yes"/>
      <point x="586" y="1109"/>
      <point x="458" y="1460"/>
      <point x="200" y="1628" type="curve"/>
      <point x="94" y="1516" type="line"/>
      <point x="293" y="1377"/>
      <point x="393" y="1067"/>
      <point x="393" y="760" type="curve" smooth="yes"/>
      <point x="393" y="453"/>
      <point x="293" y="143"/>
      <point x="94" y="4" type="curve"/>
    </contour>
  </outline>
</glyph>
<glyph name="less" format="1">
  <advance width="981"/>
  <unicode hex="003C"/>
  <outline>
    <contour>
      <point x="888" y="75" type="line"/>
      <point x="888" y="288" type="line"/>
      <point x="242" y="576" type="line"/>
      <point x="888" y="880" type="line"/>
      <point x="888" y="1086" type="line"/>
      <point x="88" y="669" type="line"/>
      <point x="88" y="496" type="line"/>
    </contour>
  </outline>
</glyph>
<glyph name="F" format="1">
  <advance width="1010"/>
  <unicode hex="0046"/>
  <outline>
    <contour>
      <point x="167" y="0" type="line"/>
      <point x="358" y="0" type="line"/>
      <point x="358" y="673" type="line"/>
      <point x="981" y="673" type="line"/>
      <point x="981" y="847" type="line"/>
      <point x="358" y="847" type="line"/>
      <point x="358" y="1339" type="line"/>
      <point x="1000" y="1339" type="line"/>
      <point x="1000" y="1516" type="line"/>
      <point x="167" y="1516" type="line"/>
    </contour>
  </outline>
</glyph>
<glyph name="H" format="1">
  <advance width="1573"/>
  <unicode hex="0048"/>
  <outline>
    <contour>
      <point x="171" y="0" type="line"/>
      <point x="364" y="0" type="line"/>
      <point x="364" y="687" type="line"/>
      <point x="1210" y="687" type="line"/>
      <point x="1210" y="0" type="line"/>
      <point x="1403" y="0" type="line"/>
      <point x="1403" y="1516" type="line"/>
      <point x="1210" y="1516" type="line"/>
      <point x="1210" y="854" type="line"/>
      <point x="364" y="854" type="line"/>
      <point x="364" y="1516" type="line"/>
      <point x="171" y="1516" type="line"/>
    </contour>
  </outline>
</glyph>
<glyph name="P" format="1">
  <advance width="1026"/>
  <unicode hex="0050"/>
  <outline>
    <contour>
      <point x="169" y="0" type="line"/>
      <point x="360" y="0" type="line"/>
      <point x="360" y="690" type="line"/>
      <point x="462" y="690" type="line" smooth="yes"/>
      <point x="848" y="690"/>
      <point x="1002" y="868"/>
      <point x="1002" y="1118" type="curve" smooth="yes"/>
      <point x="1002" y="1401"/>
      <point x="788" y="1516"/>
      <point x="510" y="1516" type="curve" smooth="yes"/>
      <point x="169" y="1516" type="line"/>
    </contour>
    <contour>
      <point x="360" y="856" type="line"/>
      <point x="360" y="1352" type="line"/>
      <point x="490" y="1352" type="line" smooth="yes"/>
      <point x="754" y="1352"/>
      <point x="801" y="1231"/>
      <point x="801" y="1107" type="curve" smooth="yes"/>
      <point x="801" y="879"/>
      <point x="605" y="856"/>
      <point x="370" y="856" type="curve" smooth="yes"/>
    </contour>
  </outline>
</glyph>
<glyph name="X" format="1">
  <advance width="1763"/>
  <unicode hex="0058"/>
  <outline>
    <contour>
      <point x="130" y="0" type="line"/>
      <point x="375" y="0" type="line"/>
      <point x="883" y="636" type="line"/>
      <point x="1388" y="0" type="line"/>
      <point x="1634" y="0" type="line"/>
      <point x="1003" y="785" type="line"/>
      <point x="1600" y="1516" type="line"/>
      <point x="1346" y="1516" type="line"/>
      <point x="881" y="920" type="line"/>
      <point x="420" y="1516" type="line"/>
      <point x="165" y="1516" type="line"/>
      <point x="749" y="787" type="line"/>
    </contour>
  </outline>
</glyph>
<glyph name="Y" format="1">
  <advance width="1365"/>
  <unicode hex="0059"/>
  <outline>
    <contour>
      <point x="580" y="0" type="line"/>
      <point x="788" y="0" type="line"/>
      <point x="788" y="799" type="line"/>
      <point x="1310" y="1516" type="line"/>
      <point x="1089" y="1516" type="line"/>
      <point x="681" y="957" type="line"/>
      <point x="290" y="1516" type="line"/>
      <point x="54" y="1516" type="line"/>
      <point x="580" y="805" type="line"/>
    </contour>
  </outline>
</glyph>
<glyph name="asciicircum" format="1">
  <advance width="1304"/>
  <unicode hex="005E"/>
  <outline>
    <contour>
      <point x="175" y="932" type="line"/>
      <point x="368" y="932" type="line"/>
      <point x="648" y="1385" type="line"/>
      <point x="921" y="932" type="line"/>
      <point x="1129" y="932" type="line"/>
      <point x="722" y="1515" type="line"/>
      <point x="565" y="1515" type="line"/>
    </contour>
  </outline>
</glyph>
<glyph name="a" format="1">
  <advance width="1047"/>
  <unicode hex="0061"/>
  <outline>
    <contour>
      <point x="401.0" y="-21.0" type="curve" smooth="yes"/>
      <point x="482.0" y="-21.0"/>
      <point x="613.0" y="23.0"/>
      <point x="678.0" y="138.0" type="curve"/>
      <point x="710.0" y="71.0"/>
      <point x="798.0" y="15.0"/>
      <point x="860.0" y="-14.0" type="curve"/>
      <point x="958.0" y="128.0" type="line"/>
      <point x="876.0" y="171.0"/>
      <point x="827.0" y="177.0"/>
      <point x="827.0" y="285.0" type="curve" smooth="yes"/>
      <point x="827.0" y="693.0" type="line" smooth="yes"/>
      <point x="827.0" y="924.0"/>
      <point x="642.0" y="1006.0"/>
      <point x="476.0" y="1006.0" type="curve" smooth="yes"/>
      <point x="335.0" y="1006.0"/>
      <point x="190.0" y="919.0"/>
      <point x="151.0" y="878.0" type="curve"/>
      <point x="202.0" y="725.0" type="line"/>
      <point x="271.0" y="792.0"/>
      <point x="368.0" y="841.0"/>
      <point x="480.0" y="841.0" type="curve" smooth="yes"/>
      <point x="591.0" y="841.0"/>
      <point x="650.0" y="755.0"/>
      <point x="650.0" y="625.0" type="curve" smooth="yes"/>
      <point x="650.0" y="612.0"/>
      <point x="649.0" y="573.0"/>
      <point x="649.0" y="568.0" type="curve"/>
      <point x="485.0" y="525.0" type="line" smooth="yes"/>
      <point x="230.0" y="458.0"/>
      <point x="133.0" y="339.0"/>
      <point x="133.0" y="230.0" type="curve" smooth="yes"/>
      <point x="133.0" y="45.0"/>
      <point x="254.0" y="-21.0"/>
    </contour>
    <contour>
      <point x="431.0" y="116.0" type="curve"/>
      <point x="370.0" y="116.0"/>
      <point x="321.0" y="150.0"/>
      <point x="321.0" y="246.0" type="curve" smooth="yes"/>
      <point x="321.0" y="379.0"/>
      <point x="518.0" y="419.0"/>
      <point x="644.0" y="460.0" type="curve"/>
      <point x="648.0" y="461.0" type="line"/>
      <point x="648.0" y="225.0" type="line"/>
      <point x="606.0" y="172.0"/>
      <point x="508.0" y="116.0"/>
    </contour>
    <contour>
      <point x="523.0" y="1046.0" type="move" name="top"/>
    </contour>
  </outline>
</glyph>
<glyph name="c" format="1">
  <advance width="1039"/>
  <unicode hex="0063"/>
  <outline>
    <contour>
      <point x="617" y="-19" type="curve" smooth="yes"/>
      <point x="642" y="-19"/>
      <point x="797" y="-13"/>
      <point x="888" y="44" type="curve"/>
      <point x="888" y="211" type="line"/>
      <point x="871" y="211" type="line"/>
      <point x="799" y="168"/>
      <point x="708" y="133"/>
      <point x="629" y="133" type="curve" smooth="yes"/>
      <point x="400" y="133"/>
      <point x="290" y="328"/>
      <point x="290" y="501" type="curve" smooth="yes"/>
      <point x="290" y="674"/>
      <point x="409" y="863"/>
      <point x="626" y="863" type="curve" smooth="yes"/>
      <point x="727" y="863"/>
      <point x="776" y="846"/>
      <point x="865" y="798" type="curve"/>
      <point x="865" y="961" type="line"/>
      <point x="810" y="997"/>
      <point x="696" y="1017"/>
      <point x="610" y="1017" type="curve" smooth="yes"/>
      <point x="343" y="1017"/>
      <point x="106" y="811"/>
      <point x="106" y="500" type="curve" smooth="yes"/>
      <point x="106" y="195"/>
      <point x="328" y="-19"/>
    </contour>
  </outline>
</glyph>
<glyph name="g" format="1">
  <advance width="1136"/>
  <unicode hex="0067"/>
  <outline>
    <contour>
      <point x="567" y="-437" type="curve" smooth="yes"/>
      <point x="772" y="-437"/>
      <point x="974" y="-344"/>
      <point x="974" y="-53" type="curve" smooth="yes"/>
      <point x="974" y="998" type="line"/>
      <point x="799" y="998" type="line"/>
      <point x="799" y="884" type="line"/>
      <point x="710" y="976"/>
      <point x="619" y="1015"/>
      <point x="532" y="1015" type="curve" smooth="yes"/>
      <point x="314" y="1015"/>
      <point x="96" y="806"/>
      <point x="96" y="526" type="curve" smooth="yes"/>
      <point x="96" y="268"/>
      <point x="246" y="0"/>
      <point x="554" y="0" type="curve" smooth="yes"/>
      <point x="692" y="0"/>
      <point x="793" y="85"/>
      <point x="796" y="87" type="curve"/>
      <point x="811" y="33"/>
      <point x="819" y="-16"/>
      <point x="819" y="-59" type="curve" smooth="yes"/>
      <point x="819" y="-230"/>
      <point x="712" y="-291"/>
      <point x="575" y="-291" type="curve" smooth="yes"/>
      <point x="483" y="-291"/>
      <point x="377" y="-264"/>
      <point x="279" y="-223" type="curve"/>
      <point x="279" y="-379" type="line"/>
      <point x="360" y="-414"/>
      <point x="464" y="-437"/>
    </contour>
    <contour>
      <point x="587" y="152" type="curve" smooth="yes"/>
      <point x="402" y="152"/>
      <point x="280" y="287"/>
      <point x="280" y="517" type="curve" smooth="yes"/>
      <point x="280" y="734"/>
      <point x="424" y="862"/>
      <point x="573" y="862" type="curve" smooth="yes"/>
      <point x="642" y="862"/>
      <point x="720" y="835"/>
      <point x="796" y="773" type="curve"/>
      <point x="796" y="202" type="line"/>
      <point x="720" y="168"/>
      <point x="649" y="152"/>
    </contour>
  </outline>
</glyph>
<glyph name="j" format="1">
  <advance width="533"/>
  <unicode hex="006A"/>
  <outline>
    <contour>
      <point x="51" y="-384" type="line"/>
      <point x="353" y="-384"/>
      <point x="392" y="-173"/>
      <point x="392" y="-79" type="curve" smooth="yes"/>
      <point x="392" y="998" type="line"/>
      <point x="211" y="998" type="line"/>
      <point x="211" y="4" type="line" smooth="yes"/>
      <point x="211" y="-113"/>
      <point x="212" y="-243"/>
      <point x="22" y="-243" type="curve"/>
    </contour>
    <contour>
      <point x="301" y="1155" type="curve" smooth="yes"/>
      <point x="383" y="1155"/>
      <point x="426" y="1213"/>
      <point x="426" y="1276" type="curve" smooth="yes"/>
      <point x="426" y="1337"/>
      <point x="383" y="1395"/>
      <point x="301" y="1395" type="curve" smooth="yes"/>
      <point x="221" y="1395"/>
      <point x="175" y="1337"/>
      <point x="175" y="1276" type="curve" smooth="yes"/>
      <point x="175" y="1213"/>
      <point x="221" y="1155"/>
    </contour>
  </outline>
</glyph>
<glyph name="k" format="1">
  <advance width="1074"/>
  <unicode hex="006B"/>
  <outline>
    <contour>
      <point x="166" y="0" type="line"/>
      <point x="344" y="0" type="line"/>
      <point x="344" y="503" type="line"/>
      <point x="823" y="0" type="line"/>
      <point x="1061" y="0" type="line"/>
      <point x="551" y="527" type="line"/>
      <point x="1005" y="998" type="line"/>
      <point x="775" y="998" type="line"/>
      <point x="344" y="538" type="line"/>
      <point x="344" y="1491" type="line"/>
      <point x="166" y="1491" type="line"/>
    </contour>
  </outline>
</glyph>
<glyph name="o" format="1">
  <advance width="1280"/>
  <unicode hex="006F"/>
  <outline>
    <contour>
      <point x="639" y="133" type="curve" smooth="yes"/>
      <point x="437" y="133"/>
      <point x="300" y="298"/>
      <point x="300" y="498" type="curve" smooth="yes"/>
      <point x="300" y="701"/>
      <point x="437" y="863"/>
      <point x="639" y="863" type="curve" smooth="yes"/>
      <point x="841" y="863"/>
      <point x="980" y="701"/>
      <point x="980" y="498" type="curve" smooth="yes"/>
      <point x="980" y="298"/>
      <point x="841" y="133"/>
    </contour>
    <contour>
      <point x="639" y="-19" type="curve" smooth="yes"/>
      <point x="922" y="-19"/>
      <point x="1159" y="186"/>
      <point x="1159" y="500" type="curve" smooth="yes"/>
      <point x="1159" y="812"/>
      <point x="922" y="1017"/>
      <point x="639" y="1017" type="curve" smooth="yes"/>
      <point x="356" y="1017"/>
      <point x="121" y="812"/>
      <point x="121" y="500" type="curve" smooth="yes"/>
      <point x="121" y="186"/>
      <point x="356" y="-19"/>
    </contour>
  </outline>
</glyph>
<glyph name="yen" format="1">
  <advance width="1266"/>
  <unicode hex="00A5"/>
  <outline>
    <contour>
      <point x="529" y="0" type="line"/>
      <point x="737" y="0" type="line"/>
      <point x="737" y="411" type="line"/>
      <point x="1221" y="411" type="line"/>
      <point x="1221" y="568" type="line"/>
      <point x="737" y="568" type="line"/>
      <point x="737" y="706" type="line"/>
      <point x="1221" y="706" type="line"/>
      <point x="1221" y="863" type="line"/>
      <point x="784" y="863" type="line"/>
      <point x="1259" y="1516" type="line"/>
      <point x="1038" y="1516" type="line"/>
      <point x="630" y="957" type="line"/>
      <point x="239" y="1516" type="line"/>
      <point x="3" y="1516" type="line"/>
      <point x="486" y="863" type="line"/>
      <point x="41" y="863" type="line"/>
      <point x="41" y="706" type="line"/>
      <point x="529" y="706" type="line"/>
      <point x="529" y="568" type="line"/>
      <point x="41" y="568" type="line"/>
      <point x="41" y="411" type="line"/>
      <point x="529" y="411" type="line"/>
    </contour>
  </outline>
</glyph>
<glyph name="guillemotleft" format="1">
  <advance width="768"/>
  <unicode hex="00AB"/>
  <outline>
    <contour>
      <point x="674" y="25" type="line"/>
      <point x="674" y="233" type="line"/>
      <point x="221" y="506" type="line"/>
      <point x="674" y="786" type="line"/>
      <point x="674" y="979" type="line"/>
      <point x="91" y="589" type="line"/>
      <point x="91" y="432" type="line"/>
    </contour>
  </outline>
</glyph>
<glyph name="cedilla" format="1">
  <advance width="538"/>
  <unicode hex="00B8"/>
  <outline>
    <contour>
      <point x="262" y="198" type="curve" smooth="yes"/>
      <point x="367" y="198"/>
      <point x="469" y="236"/>
      <point x="469" y="349" type="curve" smooth="yes"/>
      <point x="469" y="441"/>
      <point x="392" y="509"/>
      <point x="275" y="509" type="curve"/>
      <point x="315" y="636" type="line"/>
      <point x="239" y="636" type="line"/>
      <point x="153" y="381" type="line"/>
      <point x="179" y="381"/>
      <point x="337" y="390"/>
      <point x="337" y="316" type="curve" smooth="yes"/>
      <point x="337" y="260"/>
      <point x="281" y="246"/>
      <point x="224" y="246" type="curve" smooth="yes"/>
      <point x="162" y="246"/>
      <point x="96" y="262"/>
      <point x="71" y="262" type="curve" smooth="yes"/>
      <point x="63" y="262"/>
      <point x="58" y="260"/>
      <point x="58" y="257" type="curve" smooth="yes"/>
      <point x="58" y="253"/>
      <point x="66" y="247"/>
      <point x="70" y="243" type="curve"/>
      <point x="114" y="217"/>
      <point x="188" y="198"/>
    </contour>
  </outline>
</glyph>
<glyph name="Agrave" format="1">
  <advance width="1527"/>
  <unicode hex="00C0"/>
  <outline>
    <contour>
      <point x="60" y="0" type="line"/>
      <point x="258" y="0" type="line"/>
      <point x="460" y="488" type="line"/>
      <point x="1064" y="488" type="line"/>
      <point x="1277" y="0" type="line"/>
      <point x="1463" y="0" type="line"/>
      <point x="1466" y="3" type="line"/>
      <point x="817" y="1515" type="line"/>
      <point x="674" y="1515" type="line"/>
    </contour>
    <contour>
      <point x="892" y="1668" type="curve" smooth="yes"/>
      <point x="896" y="1668"/>
      <point x="900" y="1673"/>
      <point x="900" y="1682" type="curve" smooth="yes"/>
      <point x="900" y="1687"/>
      <point x="900" y="1694"/>
      <point x="897" y="1701" type="curve"/>
      <point x="812" y="2078" type="line"/>
      <point x="792" y="2141"/>
      <point x="753" y="2164"/>
      <point x="716" y="2164" type="curve" smooth="yes"/>
      <point x="670" y="2164"/>
      <point x="623" y="2128"/>
      <point x="623" y="2075" type="curve" smooth="yes"/>
      <point x="623" y="2050"/>
      <point x="633" y="2022"/>
      <point x="656" y="1994" type="curve"/>
      <point x="865" y="1687" type="line" smooth="yes"/>
      <point x="874" y="1673"/>
      <point x="884" y="1668"/>
    </contour>
    <contour>
      <point x="533" y="662" type="line"/>
      <point x="751" y="1266" type="line"/>
      <point x="988" y="662" type="line"/>
    </contour>
  </outline>
</glyph>
<glyph name="Aacute" format="1">
  <advance width="1527"/>
  <unicode hex="00C1"/>
  <outline>
    <contour>
      <point x="60" y="0" type="line"/>
      <point x="258" y="0" type="line"/>
      <point x="460" y="487" type="line"/>
      <point x="1064" y="487" type="line"/>
      <point x="1277" y="0" type="line"/>
      <point x="1463" y="0" type="line"/>
      <point x="1466" y="2" type="line"/>
      <point x="817" y="1515" type="line"/>
      <point x="674" y="1515" type="line"/>
    </contour>
    <contour>
      <point x="628" y="1668" type="curve" smooth="yes"/>
      <point x="632" y="1668"/>
      <point x="643" y="1674"/>
      <point x="652" y="1689" type="curve"/>
      <point x="873" y="1980" type="line" smooth="yes"/>
      <point x="896" y="2011"/>
      <point x="907" y="2041"/>
      <point x="907" y="2065" type="curve" smooth="yes"/>
      <point x="907" y="2118"/>
      <point x="861" y="2152"/>
      <point x="816" y="2152" type="curve" smooth="yes"/>
      <point x="776" y="2152"/>
      <point x="736" y="2128"/>
      <point x="718" y="2065" type="curve"/>
      <point x="621" y="1703" type="line" smooth="yes"/>
      <point x="619" y="1696"/>
      <point x="618" y="1688"/>
      <point x="618" y="1683" type="curve" smooth="yes"/>
      <point x="618" y="1674"/>
      <point x="621" y="1668"/>
    </contour>
    <contour>
      <point x="533" y="662" type="line"/>
      <point x="751" y="1266" type="line"/>
      <point x="988" y="662" type="line"/>
    </contour>
  </outline>
</glyph>
<glyph name="Atilde" format="1">
  <advance width="1527"/>
  <unicode hex="00C3"/>
  <outline>
    <contour>
      <point x="880" y="1668" type="curve" smooth="yes"/>
      <point x="980" y="1668"/>
      <point x="1049" y="1726"/>
      <point x="1107" y="1813" type="curve"/>
      <point x="1110" y="1821"/>
      <point x="1111" y="1824"/>
      <point x="1111" y="1828" type="curve" smooth="yes"/>
      <point x="1111" y="1837"/>
      <point x="1107" y="1841"/>
      <point x="1099" y="1841" type="curve" smooth="yes"/>
      <point x="1082" y="1841"/>
      <point x="1050" y="1796"/>
      <point x="992" y="1796" type="curve" smooth="yes"/>
      <point x="908" y="1796"/>
      <point x="751" y="1884"/>
      <point x="626" y="1884" type="curve" smooth="yes"/>
      <point x="533" y="1884"/>
      <point x="473" y="1826"/>
      <point x="421" y="1739" type="curve"/>
      <point x="416" y="1733"/>
      <point x="415" y="1729"/>
      <point x="415" y="1724" type="curve" smooth="yes"/>
      <point x="415" y="1717"/>
      <point x="421" y="1711"/>
      <point x="429" y="1711" type="curve" smooth="yes"/>
      <point x="445" y="1711"/>
      <point x="479" y="1756"/>
      <point x="534" y="1756" type="curve" smooth="yes"/>
      <point x="647" y="1756"/>
      <point x="788" y="1668"/>
    </contour>
    <contour>
      <point x="60" y="0" type="line"/>
      <point x="258" y="0" type="line"/>
      <point x="460" y="488" type="line"/>
      <point x="1064" y="488" type="line"/>
      <point x="1277" y="0" type="line"/>
      <point x="1463" y="0" type="line"/>
      <point x="1466" y="3" type="line"/>
      <point x="817" y="1515" type="line"/>
      <point x="674" y="1515" type="line"/>
    </contour>
    <contour>
      <point x="533" y="662" type="line"/>
      <point x="751" y="1266" type="line"/>
      <point x="988" y="662" type="line"/>
    </contour>
  </outline>
</glyph>
<glyph name="Aring" format="1">
  <advance width="1527"/>
  <unicode hex="00C5"/>
  <outline>
    <contour>
      <point x="60" y="0" type="line"/>
      <point x="258" y="0" type="line"/>
      <point x="460" y="487" type="line"/>
      <point x="1064" y="487" type="line"/>
      <point x="1277" y="0" type="line"/>
      <point x="1463" y="0" type="line"/>
      <point x="1466" y="3" type="line"/>
      <point x="818" y="1513" type="line"/>
      <point x="910" y="1536"/>
      <point x="985" y="1605"/>
      <point x="985" y="1721" type="curve" smooth="yes"/>
      <point x="985" y="1865"/>
      <point x="868" y="1938"/>
      <point x="749" y="1938" type="curve" smooth="yes"/>
      <point x="629" y="1938"/>
      <point x="510" y="1865"/>
      <point x="510" y="1723" type="curve" smooth="yes"/>
      <point x="510" y="1609"/>
      <point x="584" y="1539"/>
      <point x="673" y="1514" type="curve"/>
    </contour>
    <contour>
      <point x="749" y="1606" type="curve" smooth="yes"/>
      <point x="687" y="1606"/>
      <point x="622" y="1646"/>
      <point x="622" y="1721" type="curve" smooth="yes"/>
      <point x="622" y="1798"/>
      <point x="686" y="1836"/>
      <point x="748" y="1836" type="curve" smooth="yes"/>
      <point x="810" y="1836"/>
      <point x="870" y="1798"/>
      <point x="870" y="1721" type="curve" smooth="yes"/>
      <point x="870" y="1646"/>
      <point x="811" y="1606"/>
    </contour>
    <contour>
      <point x="533" y="662" type="line"/>
      <point x="751" y="1266" type="line"/>
      <point x="988" y="662" type="line"/>
    </contour>
  </outline>
</glyph>
<glyph name="Igrave" format="1">
  <advance width="429"/>
  <unicode hex="00CC"/>
  <outline>
    <contour>
      <point x="344" y="1668" type="curve" smooth="yes"/>
      <point x="349" y="1668"/>
      <point x="352" y="1673"/>
      <point x="352" y="1682" type="curve" smooth="yes"/>
      <point x="352" y="1687"/>
      <point x="352" y="1694"/>
      <point x="350" y="1701" type="curve" smooth="yes"/>
      <point x="264" y="2078" type="line"/>
      <point x="245" y="2141"/>
      <point x="206" y="2164"/>
      <point x="169" y="2164" type="curve" smooth="yes"/>
      <point x="122" y="2164"/>
      <point x="76" y="2128"/>
      <point x="76" y="2075" type="curve" smooth="yes"/>
      <point x="76" y="2050"/>
      <point x="86" y="2022"/>
      <point x="108" y="1994" type="curve"/>
      <point x="318" y="1687" type="line" smooth="yes"/>
      <point x="327" y="1673"/>
      <point x="337" y="1668"/>
    </contour>
    <contour>
      <point x="119" y="0" type="line"/>
      <point x="312" y="0" type="line"/>
      <point x="312" y="1515" type="line"/>
      <point x="119" y="1515" type="line"/>
    </contour>
  </outline>
</glyph>
<glyph name="Ucircumflex" format="1">
  <advance width="1486"/>
  <unicode hex="00DB"/>
  <outline>
    <contour>
      <point x="443" y="1667" type="curve"/>
      <point x="444" y="1667"/>
      <point x="444" y="1667"/>
      <point x="447" y="1669" type="curve" smooth="yes"/>
      <point x="742" y="1874" type="line"/>
      <point x="1038" y="1669" type="line" smooth="yes"/>
      <point x="1041" y="1667"/>
      <point x="1042" y="1667"/>
      <point x="1043" y="1667" type="curve" smooth="yes"/>
      <point x="1044" y="1667"/>
      <point x="1045" y="1669"/>
      <point x="1045" y="1671" type="curve" smooth="yes"/>
      <point x="1045" y="1673" type="line"/>
      <point x="781" y="2080" type="line"/>
      <point x="774" y="2088"/>
      <point x="756" y="2096"/>
      <point x="742" y="2096" type="curve" smooth="yes"/>
      <point x="728" y="2096"/>
      <point x="713" y="2088"/>
      <point x="705" y="2080" type="curve"/>
      <point x="440" y="1673" type="line"/>
      <point x="439" y="1673"/>
      <point x="439" y="1672"/>
      <point x="439" y="1671" type="curve" smooth="yes"/>
      <point x="439" y="1669"/>
      <point x="441" y="1667"/>
    </contour>
    <contour>
      <point x="744" y="-19" type="curve" smooth="yes"/>
      <point x="1049" y="-19"/>
      <point x="1356" y="182"/>
      <point x="1356" y="587" type="curve" smooth="yes"/>
      <point x="1356" y="1515" type="line"/>
      <point x="1164" y="1515" type="line"/>
      <point x="1164" y="591" type="line" smooth="yes"/>
      <point x="1164" y="300"/>
      <point x="953" y="154"/>
      <point x="741" y="154" type="curve" smooth="yes"/>
      <point x="529" y="154"/>
      <point x="321" y="300"/>
      <point x="321" y="591" type="curve" smooth="yes"/>
      <point x="321" y="1515" type="line"/>
      <point x="129" y="1515" type="line"/>
      <point x="129" y="586" type="line" smooth="yes"/>
      <point x="129" y="182"/>
      <point x="438" y="-19"/>
    </contour>
  </outline>
</glyph>
<glyph name="igrave" format="1">
  <advance width="456"/>
  <unicode hex="00EC"/>
  <outline>
    <contour>
      <point x="380" y="1149" type="curve" smooth="yes"/>
      <point x="385" y="1149"/>
      <point x="390" y="1153"/>
      <point x="390" y="1163" type="curve" smooth="yes"/>
      <point x="390" y="1166"/>
      <point x="390" y="1175"/>
      <point x="386" y="1180" type="curve"/>
      <point x="301" y="1558" type="line"/>
      <point x="281" y="1621"/>
      <point x="243" y="1644"/>
      <point x="205" y="1644" type="curve" smooth="yes"/>
      <point x="158" y="1644"/>
      <point x="114" y="1608"/>
      <point x="114" y="1554" type="curve" smooth="yes"/>
      <point x="114" y="1530"/>
      <point x="121" y="1502"/>
      <point x="144" y="1473" type="curve"/>
      <point x="354" y="1166" type="line" smooth="yes"/>
      <point x="363" y="1153"/>
      <point x="373" y="1149"/>
    </contour>
    <contour>
      <point x="161" y="0" type="line"/>
      <point x="343" y="0" type="line"/>
      <point x="343" y="996" type="line"/>
      <point x="161" y="996" type="line"/>
    </contour>
  </outline>
</glyph>
<glyph name="Abreve" format="1">
  <advance width="1527"/>
  <unicode hex="0102"/>
  <outline>
    <contour>
      <point x="60" y="0" type="line"/>
      <point x="258" y="0" type="line"/>
      <point x="460" y="486" type="line"/>
      <point x="1064" y="486" type="line"/>
      <point x="1277" y="0" type="line"/>
      <point x="1463" y="0" type="line"/>
      <point x="1466" y="3" type="line"/>
      <point x="817" y="1515" type="line"/>
      <point x="674" y="1515" type="line"/>
    </contour>
    <contour>
      <point x="763" y="1668" type="curve" smooth="yes"/>
      <point x="874" y="1668"/>
      <point x="988" y="1747"/>
      <point x="993" y="1907" type="curve"/>
      <point x="889" y="1907" type="line"/>
      <point x="880" y="1825"/>
      <point x="820" y="1783"/>
      <point x="762" y="1783" type="curve" smooth="yes"/>
      <point x="703" y="1783"/>
      <point x="645" y="1825"/>
      <point x="635" y="1907" type="curve"/>
      <point x="531" y="1907" type="line"/>
      <point x="537" y="1747"/>
      <point x="650" y="1668"/>
    </contour>
    <contour>
      <point x="533" y="662" type="line"/>
      <point x="751" y="1265" type="line"/>
      <point x="988" y="662" type="line"/>
    </contour>
  </outline>
</glyph>
<glyph name="Ccaron" format="1">
  <advance width="1511"/>
  <unicode hex="010C"/>
  <outline>
    <contour>
      <point x="743" y="1667" type="curve" smooth="yes"/>
      <point x="754" y="1667"/>
      <point x="773" y="1674"/>
      <point x="778" y="1684" type="curve"/>
      <point x="1044" y="2089" type="line"/>
      <point x="1047" y="2089"/>
      <point x="1047" y="2091"/>
      <point x="1047" y="2092" type="curve" smooth="yes"/>
      <point x="1047" y="2093"/>
      <point x="1044" y="2096"/>
      <point x="1041" y="2096" type="curve" smooth="yes"/>
      <point x="1040" y="2096"/>
      <point x="1040" y="2096"/>
      <point x="1039" y="2093" type="curve"/>
      <point x="743" y="1887" type="line"/>
      <point x="447" y="2093" type="line"/>
      <point x="446" y="2096"/>
      <point x="444" y="2096"/>
      <point x="443" y="2096" type="curve" smooth="yes"/>
      <point x="442" y="2096"/>
      <point x="441" y="2093"/>
      <point x="441" y="2092" type="curve"/>
      <point x="441" y="2089" type="line"/>
      <point x="705" y="1684" type="line" smooth="yes"/>
      <point x="711" y="1674"/>
      <point x="727" y="1667"/>
    </contour>
    <contour>
      <point x="905" y="-19" type="curve" smooth="yes"/>
      <point x="1060" y="-19"/>
      <point x="1214" y="20"/>
      <point x="1391" y="115" type="curve"/>
      <point x="1391" y="325" type="line"/>
      <point x="1254" y="218"/>
      <point x="1077" y="160"/>
      <point x="916" y="160" type="curve" smooth="yes"/>
      <point x="608" y="160"/>
      <point x="325" y="354"/>
      <point x="325" y="754" type="curve" smooth="yes"/>
      <point x="325" y="1126"/>
      <point x="604" y="1350"/>
      <point x="922" y="1350" type="curve" smooth="yes"/>
      <point x="1064" y="1350"/>
      <point x="1225" y="1303"/>
      <point x="1391" y="1215" type="curve"/>
      <point x="1391" y="1433" type="line"/>
      <point x="1238" y="1498"/>
      <point x="1067" y="1536"/>
      <point x="920" y="1536" type="curve" smooth="yes"/>
      <point x="481" y="1536"/>
      <point x="106" y="1239"/>
      <point x="106" y="759" type="curve" smooth="yes"/>
      <point x="106" y="328"/>
      <point x="431" y="-19"/>
    </contour>
  </outline>
</glyph>
<glyph name="Iogonek" format="1">
  <advance width="429"/>
  <unicode hex="012E"/>
  <outline>
    <contour>
      <point x="243" y="-412" type="curve" smooth="yes"/>
      <point x="256" y="-412"/>
      <point x="272" y="-410"/>
      <point x="286" y="-408" type="curve"/>
      <point x="316" y="-282" type="line"/>
      <point x="315" y="-282" type="line"/>
      <point x="193" y="-282"/>
      <point x="128" y="-222"/>
      <point x="128" y="-158" type="curve" smooth="yes"/>
      <point x="128" y="-109"/>
      <point x="169" y="-57"/>
      <point x="245" y="-32" type="curve"/>
      <point x="224" y="0" type="line"/>
      <point x="311" y="0" type="line"/>
      <point x="311" y="1516" type="line"/>
      <point x="120" y="1516" type="line"/>
      <point x="120" y="0" type="line"/>
      <point x="131" y="0" type="line"/>
      <point x="50" y="-32"/>
      <point x="9" y="-111"/>
      <point x="9" y="-192" type="curve" smooth="yes"/>
      <point x="9" y="-304"/>
      <point x="102" y="-412"/>
    </contour>
  </outline>
</glyph>
<glyph name="iogonek" format="1">
  <advance width="465"/>
  <unicode hex="012F"/>
  <outline>
    <contour>
      <point x="259" y="-412" type="curve"/>
      <point x="260" y="-412" type="line"/>
      <point x="273" y="-412"/>
      <point x="288" y="-411"/>
      <point x="302" y="-408" type="curve"/>
      <point x="333" y="-283" type="line"/>
      <point x="332" y="-283" type="line"/>
      <point x="207" y="-283"/>
      <point x="144" y="-222"/>
      <point x="144" y="-158" type="curve" smooth="yes"/>
      <point x="144" y="-110"/>
      <point x="186" y="-58"/>
      <point x="261" y="-32" type="curve"/>
      <point x="241" y="0" type="line"/>
      <point x="321" y="0" type="line"/>
      <point x="321" y="997" type="line"/>
      <point x="143" y="997" type="line"/>
      <point x="143" y="0" type="line"/>
      <point x="147" y="0" type="line"/>
      <point x="65" y="-32"/>
      <point x="23" y="-112"/>
      <point x="23" y="-194" type="curve" smooth="yes"/>
      <point x="23" y="-304"/>
      <point x="118" y="-412"/>
    </contour>
    <contour>
      <point x="231" y="1155" type="curve" smooth="yes"/>
      <point x="313" y="1155"/>
      <point x="357" y="1214"/>
      <point x="357" y="1275" type="curve" smooth="yes"/>
      <point x="357" y="1337"/>
      <point x="313" y="1396"/>
      <point x="231" y="1396" type="curve" smooth="yes"/>
      <point x="150" y="1396"/>
      <point x="106" y="1337"/>
      <point x="106" y="1275" type="curve" smooth="yes"/>
      <point x="106" y="1214"/>
      <point x="150" y="1155"/>
    </contour>
  </outline>
</glyph>
<glyph name="ncaron" format="1">
  <advance width="1015"/>
  <unicode hex="0148"/>
  <outline>
    <contour>
      <point x="103" y="0" type="line"/>
      <point x="282" y="0" type="line"/>
      <point x="282" y="711" type="line"/>
      <point x="335" y="789"/>
      <point x="468" y="869"/>
      <point x="578" y="869" type="curve" smooth="yes"/>
      <point x="667" y="869"/>
      <point x="738" y="817"/>
      <point x="738" y="675" type="curve" smooth="yes"/>
      <point x="738" y="0" type="line"/>
      <point x="916" y="0" type="line"/>
      <point x="916" y="681" type="line" smooth="yes"/>
      <point x="916" y="880"/>
      <point x="791" y="1017"/>
      <point x="605" y="1017" type="curve" smooth="yes"/>
      <point x="549" y="1017"/>
      <point x="413" y="1006"/>
      <point x="278" y="855" type="curve"/>
      <point x="278" y="999" type="line"/>
      <point x="103" y="999" type="line"/>
    </contour>
    <contour>
      <point x="508" y="1149" type="curve" smooth="yes"/>
      <point x="522" y="1149"/>
      <point x="538" y="1157"/>
      <point x="545" y="1164" type="curve"/>
      <point x="811" y="1572" type="line"/>
      <point x="812" y="1572"/>
      <point x="812" y="1573"/>
      <point x="812" y="1574" type="curve" smooth="yes"/>
      <point x="812" y="1575"/>
      <point x="811" y="1576"/>
      <point x="809" y="1576" type="curve" smooth="yes"/>
      <point x="808" y="1576"/>
      <point x="808" y="1576"/>
      <point x="805" y="1575" type="curve"/>
      <point x="508" y="1369" type="line"/>
      <point x="214" y="1575" type="line"/>
      <point x="211" y="1576"/>
      <point x="209" y="1576"/>
      <point x="208" y="1576" type="curve" smooth="yes"/>
      <point x="207" y="1576"/>
      <point x="206" y="1575"/>
      <point x="206" y="1574" type="curve"/>
      <point x="206" y="1572" type="line"/>
      <point x="471" y="1164" type="line"/>
      <point x="478" y="1157"/>
      <point x="494" y="1149"/>
    </contour>
  </outline>
</glyph>
<glyph name="rcommaaccent" format="1">
  <advance width="823"/>
  <unicode hex="0157"/>
  <outline>
    <contour>
      <point x="108" y="0" type="line"/>
      <point x="284" y="0" type="line"/>
      <point x="284" y="412" type="line" smooth="yes"/>
      <point x="284" y="738"/>
      <point x="437" y="826"/>
      <point x="517" y="826" type="curve" smooth="yes"/>
      <point x="574" y="826"/>
      <point x="624" y="779"/>
      <point x="655" y="740" type="curve"/>
      <point x="772" y="900" type="line"/>
      <point x="695" y="986"/>
      <point x="611" y="1016"/>
      <point x="561" y="1016" type="curve" smooth="yes"/>
      <point x="417" y="1016"/>
      <point x="321" y="871"/>
      <point x="284" y="750" type="curve"/>
      <point x="284" y="997" type="line"/>
      <point x="108" y="997" type="line"/>
    </contour>
    <contour>
      <point x="338" y="-604" type="line"/>
      <point x="442" y="-604"/>
      <point x="574" y="-413"/>
      <point x="574" y="-279" type="curve" smooth="yes"/>
      <point x="574" y="-179"/>
      <point x="502" y="-132"/>
      <point x="431" y="-132" type="curve" smooth="yes"/>
      <point x="365" y="-132"/>
      <point x="299" y="-180"/>
      <point x="299" y="-270" type="curve" smooth="yes"/>
      <point x="299" y="-323"/>
      <point x="331" y="-374"/>
      <point x="400" y="-394" type="curve"/>
      <point x="400" y="-472"/>
      <point x="375" y="-524"/>
      <point x="314" y="-581" type="curve"/>
    </contour>
  </outline>
</glyph>
<glyph name="Scedilla" format="1">
  <advance width="990"/>
  <unicode hex="015E"/>
  <outline>
    <contour>
      <point x="476" y="-439" type="curve" smooth="yes"/>
      <point x="580" y="-439"/>
      <point x="682" y="-400"/>
      <point x="682" y="-288" type="curve" smooth="yes"/>
      <point x="682" y="-196"/>
      <point x="605" y="-128"/>
      <point x="489" y="-128" type="curve"/>
      <point x="526" y="-10" type="line"/>
      <point x="729" y="13"/>
      <point x="910" y="147"/>
      <point x="910" y="389" type="curve" smooth="yes"/>
      <point x="910" y="533"/>
      <point x="859" y="642"/>
      <point x="682" y="768" type="curve"/>
      <point x="425" y="948" type="line"/>
      <point x="333" y="1011"/>
      <point x="280" y="1092"/>
      <point x="280" y="1169" type="curve" smooth="yes"/>
      <point x="280" y="1271"/>
      <point x="365" y="1358"/>
      <point x="534" y="1358" type="curve" smooth="yes"/>
      <point x="676" y="1358"/>
      <point x="823" y="1246"/>
      <point x="853" y="1224" type="curve"/>
      <point x="853" y="1439" type="line"/>
      <point x="823" y="1466"/>
      <point x="658" y="1536"/>
      <point x="516" y="1536" type="curve" smooth="yes"/>
      <point x="230" y="1536"/>
      <point x="72" y="1345"/>
      <point x="72" y="1149" type="curve" smooth="yes"/>
      <point x="72" y="1033"/>
      <point x="127" y="913"/>
      <point x="245" y="829" type="curve" smooth="yes"/>
      <point x="560" y="605" type="line" smooth="yes"/>
      <point x="699" y="505"/>
      <point x="719" y="446"/>
      <point x="719" y="375" type="curve" smooth="yes"/>
      <point x="719" y="238"/>
      <point x="610" y="165"/>
      <point x="477" y="165" type="curve" smooth="yes"/>
      <point x="295" y="165"/>
      <point x="198" y="265"/>
      <point x="103" y="343" type="curve"/>
      <point x="103" y="121" type="line"/>
      <point x="196" y="33"/>
      <point x="322" y="-11"/>
      <point x="448" y="-14" type="curve"/>
      <point x="367" y="-255" type="line"/>
      <point x="393" y="-255"/>
      <point x="550" y="-246"/>
      <point x="550" y="-322" type="curve" smooth="yes"/>
      <point x="550" y="-377"/>
      <point x="495" y="-391"/>
      <point x="438" y="-391" type="curve" smooth="yes"/>
      <point x="375" y="-391"/>
      <point x="310" y="-374"/>
      <point x="285" y="-374" type="curve" smooth="yes"/>
      <point x="277" y="-374"/>
      <point x="272" y="-377"/>
      <point x="272" y="-380" type="curve" smooth="yes"/>
      <point x="272" y="-384"/>
      <point x="280" y="-390"/>
      <point x="284" y="-395" type="curve"/>
      <point x="327" y="-420"/>
      <point x="402" y="-439"/>
    </contour>
  </outline>
</glyph>
<glyph name="Tcaron" format="1">
  <advance width="1312"/>
  <unicode hex="0164"/>
  <outline>
    <contour>
      <point x="655" y="1669" type="curve" smooth="yes"/>
      <point x="669" y="1669"/>
      <point x="685" y="1675"/>
      <point x="693" y="1684" type="curve"/>
      <point x="958" y="2091" type="line"/>
      <point x="959" y="2091"/>
      <point x="959" y="2093"/>
      <point x="959" y="2094" type="curve" smooth="yes"/>
      <point x="959" y="2095"/>
      <point x="958" y="2096"/>
      <point x="956" y="2096" type="curve" smooth="yes"/>
      <point x="955" y="2096"/>
      <point x="955" y="2096"/>
      <point x="952" y="2095" type="curve"/>
      <point x="655" y="1889" type="line"/>
      <point x="361" y="2095" type="line"/>
      <point x="358" y="2096"/>
      <point x="356" y="2096"/>
      <point x="355" y="2096" type="curve" smooth="yes"/>
      <point x="354" y="2096"/>
      <point x="353" y="2095"/>
      <point x="353" y="2094" type="curve"/>
      <point x="353" y="2091" type="line"/>
      <point x="618" y="1684" type="line"/>
      <point x="625" y="1675"/>
      <point x="641" y="1669"/>
    </contour>
    <contour>
      <point x="559" y="0" type="line"/>
      <point x="751" y="0" type="line"/>
      <point x="751" y="1340" type="line"/>
      <point x="1273" y="1340" type="line"/>
      <point x="1273" y="1516" type="line"/>
      <point x="39" y="1516" type="line"/>
      <point x="39" y="1340" type="line"/>
      <point x="559" y="1340" type="line"/>
    </contour>
  </outline>
</glyph>
<glyph name="Umacron" format="1">
  <advance width="1486"/>
  <unicode hex="016A"/>
  <outline>
    <contour>
      <point x="744" y="-20" type="curve" smooth="yes"/>
      <point x="1049" y="-20"/>
      <point x="1356" y="182"/>
      <point x="1356" y="586" type="curve" smooth="yes"/>
      <point x="1356" y="1515" type="line"/>
      <point x="1164" y="1515" type="line"/>
      <point x="1164" y="592" type="line" smooth="yes"/>
      <point x="1164" y="301"/>
      <point x="953" y="155"/>
      <point x="741" y="155" type="curve" smooth="yes"/>
      <point x="529" y="155"/>
      <point x="321" y="301"/>
      <point x="321" y="592" type="curve" smooth="yes"/>
      <point x="321" y="1515" type="line"/>
      <point x="129" y="1515" type="line"/>
      <point x="129" y="585" type="line" smooth="yes"/>
      <point x="129" y="182"/>
      <point x="438" y="-20"/>
    </contour>
    <contour>
      <point x="486" y="1668" type="line"/>
      <point x="999" y="1668" type="line"/>
      <point x="999" y="1820" type="line"/>
      <point x="486" y="1820" type="line"/>
    </contour>
  </outline>
</glyph>
<glyph name="ubreve" format="1">
  <advance width="1003"/>
  <unicode hex="016D"/>
  <outline>
    <contour>
      <point x="418" y="-17" type="curve" smooth="yes"/>
      <point x="524" y="-17"/>
      <point x="633" y="31"/>
      <point x="720" y="130" type="curve"/>
      <point x="720" y="0" type="line"/>
      <point x="895" y="0" type="line"/>
      <point x="895" y="997" type="line"/>
      <point x="718" y="997" type="line"/>
      <point x="718" y="273" type="line"/>
      <point x="662" y="187"/>
      <point x="551" y="128"/>
      <point x="452" y="128" type="curve" smooth="yes"/>
      <point x="358" y="128"/>
      <point x="279" y="183"/>
      <point x="279" y="326" type="curve" smooth="yes"/>
      <point x="279" y="997" type="line"/>
      <point x="100" y="997" type="line"/>
      <point x="100" y="335" type="line" smooth="yes"/>
      <point x="100" y="102"/>
      <point x="252" y="-17"/>
    </contour>
    <contour>
      <point x="498" y="1149" type="curve" smooth="yes"/>
      <point x="609" y="1149"/>
      <point x="721" y="1228"/>
      <point x="728" y="1387" type="curve"/>
      <point x="623" y="1387" type="line"/>
      <point x="614" y="1306"/>
      <point x="555" y="1265"/>
      <point x="497" y="1265" type="curve" smooth="yes"/>
      <point x="438" y="1265"/>
      <point x="380" y="1306"/>
      <point x="370" y="1387" type="curve"/>
      <point x="266" y="1387" type="line"/>
      <point x="272" y="1228"/>
      <point x="385" y="1149"/>
    </contour>
  </outline>
</glyph>
<glyph name="uring" format="1">
  <advance width="1003"/>
  <unicode hex="016F"/>
  <outline>
    <contour>
      <point x="418" y="-18" type="curve" smooth="yes"/>
      <point x="524" y="-18"/>
      <point x="633" y="31"/>
      <point x="720" y="129" type="curve"/>
      <point x="720" y="0" type="line"/>
      <point x="895" y="0" type="line"/>
      <point x="895" y="998" type="line"/>
      <point x="718" y="998" type="line"/>
      <point x="718" y="272" type="line"/>
      <point x="662" y="186"/>
      <point x="551" y="127"/>
      <point x="452" y="127" type="curve" smooth="yes"/>
      <point x="358" y="127"/>
      <point x="279" y="183"/>
      <point x="279" y="325" type="curve" smooth="yes"/>
      <point x="279" y="998" type="line"/>
      <point x="100" y="998" type="line"/>
      <point x="100" y="336" type="line" smooth="yes"/>
      <point x="100" y="101"/>
      <point x="252" y="-18"/>
    </contour>
    <contour>
      <point x="498" y="1250" type="curve" smooth="yes"/>
      <point x="436" y="1250"/>
      <point x="371" y="1290"/>
      <point x="371" y="1366" type="curve" smooth="yes"/>
      <point x="371" y="1444"/>
      <point x="434" y="1480"/>
      <point x="497" y="1480" type="curve" smooth="yes"/>
      <point x="558" y="1480"/>
      <point x="619" y="1444"/>
      <point x="619" y="1366" type="curve" smooth="yes"/>
      <point x="619" y="1290"/>
      <point x="560" y="1250"/>
    </contour>
    <contour>
      <point x="497" y="1148" type="curve" smooth="yes"/>
      <point x="617" y="1148"/>
      <point x="734" y="1221"/>
      <point x="734" y="1366" type="curve" smooth="yes"/>
      <point x="734" y="1510"/>
      <point x="617" y="1582"/>
      <point x="498" y="1582" type="curve" smooth="yes"/>
      <point x="377" y="1582"/>
      <point x="259" y="1510"/>
      <point x="259" y="1367" type="curve" smooth="yes"/>
      <point x="259" y="1223"/>
      <point x="377" y="1148"/>
    </contour>
  </outline>
</glyph>
<glyph name="uni01C4" format="1">
  <advance width="2949"/>
  <unicode hex="01C4"/>
  <outline>
    <contour>
      <point x="704" y="1669" type="curve" smooth="yes"/>
      <point x="718" y="1669"/>
      <point x="734" y="1675"/>
      <point x="741" y="1684" type="curve"/>
      <point x="1007" y="2091" type="line"/>
      <point x="1008" y="2091"/>
      <point x="1008" y="2093"/>
      <point x="1008" y="2094" type="curve" smooth="yes"/>
      <point x="1008" y="2095"/>
      <point x="1007" y="2096"/>
      <point x="1005" y="2096" type="curve" smooth="yes"/>
      <point x="1004" y="2096"/>
      <point x="1004" y="2096"/>
      <point x="1002" y="2095" type="curve" smooth="yes"/>
      <point x="704" y="1889" type="line"/>
      <point x="410" y="2095" type="line" smooth="yes"/>
      <point x="408" y="2096"/>
      <point x="405" y="2096"/>
      <point x="404" y="2096" type="curve" smooth="yes"/>
      <point x="403" y="2096"/>
      <point x="402" y="2095"/>
      <point x="402" y="2094" type="curve"/>
      <point x="402" y="2091" type="line"/>
      <point x="667" y="1684" type="line"/>
      <point x="674" y="1675"/>
      <point x="690" y="1669"/>
    </contour>
    <contour>
      <point x="98" y="0" type="line"/>
      <point x="1314" y="0" type="line"/>
      <point x="1314" y="169" type="line"/>
      <point x="442" y="169" type="line"/>
      <point x="1311" y="1506" type="line"/>
      <point x="1302" y="1516" type="line"/>
      <point x="146" y="1516" type="line"/>
      <point x="146" y="1352" type="line"/>
      <point x="967" y="1352" type="line"/>
      <point x="96" y="11" type="line"/>
    </contour>
    <contour>
      <point x="1711" y="177" type="line"/>
      <point x="1711" y="1337" type="line"/>
      <point x="2103" y="1337" type="line" smooth="yes"/>
      <point x="2399" y="1337"/>
      <point x="2634" y="1199"/>
      <point x="2634" y="761" type="curve" smooth="yes"/>
      <point x="2634" y="374"/>
      <point x="2399" y="177"/>
      <point x="2055" y="177" type="curve" smooth="yes"/>
    </contour>
    <contour>
      <point x="1520" y="0" type="line"/>
      <point x="2098" y="0" type="line" smooth="yes"/>
      <point x="2575" y="0"/>
      <point x="2842" y="356"/>
      <point x="2842" y="764" type="curve" smooth="yes"/>
      <point x="2842" y="1207"/>
      <point x="2595" y="1516"/>
      <point x="2131" y="1516" type="curve" smooth="yes"/>
      <point x="1520" y="1516" type="line"/>
    </contour>
  </outline>
</glyph>
<glyph name="uni01cb" format="1">
  <advance width="2072"/>
  <unicode hex="01CB"/>
  <outline>
    <contour>
      <point x="602" y="0" type="line"/>
      <point x="783" y="0" type="line"/>
      <point x="783" y="1194" type="line"/>
      <point x="1782" y="0" type="line"/>
      <point x="1945" y="0" type="line"/>
      <point x="1945" y="1515" type="line"/>
      <point x="1759" y="1515" type="line"/>
      <point x="1759" y="311" type="line"/>
      <point x="756" y="1515" type="line"/>
      <point x="602" y="1515" type="line"/>
    </contour>
    <contour>
      <point x="18" y="-384" type="line"/>
      <point x="320" y="-384"/>
      <point x="359" y="-173"/>
      <point x="359" y="-79" type="curve" smooth="yes"/>
      <point x="359" y="1016" type="line"/>
      <point x="178" y="1016" type="line"/>
      <point x="178" y="4" type="line" smooth="yes"/>
      <point x="178" y="-112"/>
      <point x="179" y="-242"/>
      <point x="-11" y="-242" type="curve"/>
    </contour>
    <contour>
      <point x="268" y="1156" type="curve" smooth="yes"/>
      <point x="350" y="1156"/>
      <point x="394" y="1214"/>
      <point x="394" y="1276" type="curve" smooth="yes"/>
      <point x="394" y="1337"/>
      <point x="350" y="1397"/>
      <point x="268" y="1397" type="curve" smooth="yes"/>
      <point x="188" y="1397"/>
      <point x="143" y="1337"/>
      <point x="143" y="1276" type="curve" smooth="yes"/>
      <point x="143" y="1214"/>
      <point x="188" y="1156"/>
    </contour>
  </outline>
</glyph>
<glyph name="uni01F1" format="1">
  <advance width="2949"/>
  <unicode hex="01F1"/>
  <outline>
    <contour>
      <point x="98" y="0" type="line"/>
      <point x="1314" y="0" type="line"/>
      <point x="1314" y="168" type="line"/>
      <point x="442" y="168" type="line"/>
      <point x="1311" y="1507" type="line"/>
      <point x="1302" y="1516" type="line"/>
      <point x="146" y="1516" type="line"/>
      <point x="146" y="1352" type="line"/>
      <point x="967" y="1352" type="line"/>
      <point x="96" y="10" type="line"/>
    </contour>
    <contour>
      <point x="1711" y="177" type="line"/>
      <point x="1711" y="1337" type="line"/>
      <point x="2103" y="1337" type="line" smooth="yes"/>
      <point x="2399" y="1337"/>
      <point x="2634" y="1198"/>
      <point x="2634" y="760" type="curve" smooth="yes"/>
      <point x="2634" y="373"/>
      <point x="2399" y="177"/>
      <point x="2055" y="177" type="curve" smooth="yes"/>
    </contour>
    <contour>
      <point x="1520" y="0" type="line"/>
      <point x="2098" y="0" type="line" smooth="yes"/>
      <point x="2575" y="0"/>
      <point x="2842" y="357"/>
      <point x="2842" y="763" type="curve" smooth="yes"/>
      <point x="2842" y="1207"/>
      <point x="2595" y="1516"/>
      <point x="2131" y="1516" type="curve" smooth="yes"/>
      <point x="1520" y="1516" type="line"/>
    </contour>
  </outline>
</glyph>
<glyph name="uni020F" format="1">
  <advance width="1198"/>
  <unicode hex="020F"/>
  <outline>
    <contour>
      <point x="329" y="1149" type="curve"/>
      <point x="472" y="1149" type="line"/>
      <point x="482" y="1231"/>
      <point x="532" y="1272"/>
      <point x="599" y="1272" type="curve" smooth="yes"/>
      <point x="666" y="1272"/>
      <point x="717" y="1231"/>
      <point x="726" y="1149" type="curve"/>
      <point x="869" y="1149" type="line"/>
      <point x="863" y="1308"/>
      <point x="724" y="1400"/>
      <point x="600" y="1400" type="curve" smooth="yes"/>
      <point x="476" y="1400"/>
      <point x="336" y="1308"/>
    </contour>
    <contour>
      <point x="599" y="132" type="curve" smooth="yes"/>
      <point x="397" y="132"/>
      <point x="260" y="298"/>
      <point x="260" y="497" type="curve" smooth="yes"/>
      <point x="260" y="701"/>
      <point x="397" y="862"/>
      <point x="599" y="862" type="curve" smooth="yes"/>
      <point x="801" y="862"/>
      <point x="940" y="701"/>
      <point x="940" y="497" type="curve" smooth="yes"/>
      <point x="940" y="298"/>
      <point x="801" y="132"/>
    </contour>
    <contour>
      <point x="599" y="-20" type="curve" smooth="yes"/>
      <point x="882" y="-20"/>
      <point x="1119" y="186"/>
      <point x="1119" y="500" type="curve" smooth="yes"/>
      <point x="1119" y="810"/>
      <point x="882" y="1017"/>
      <point x="599" y="1017" type="curve" smooth="yes"/>
      <point x="316" y="1017"/>
      <point x="81" y="810"/>
      <point x="81" y="500" type="curve" smooth="yes"/>
      <point x="81" y="186"/>
      <point x="316" y="-20"/>
    </contour>
  </outline>
</glyph>
<glyph name="uni021A" format="1">
  <advance width="1312"/>
  <unicode hex="021A"/>
  <outline>
    <contour>
      <point x="559" y="0" type="line"/>
      <point x="751" y="0" type="line"/>
      <point x="751" y="1342" type="line"/>
      <point x="1273" y="1342" type="line"/>
      <point x="1273" y="1517" type="line"/>
      <point x="39" y="1517" type="line"/>
      <point x="39" y="1342" type="line"/>
      <point x="559" y="1342" type="line"/>
    </contour>
    <contour>
      <point x="556" y="-604" type="line"/>
      <point x="660" y="-604"/>
      <point x="793" y="-412"/>
      <point x="793" y="-278" type="curve" smooth="yes"/>
      <point x="793" y="-177"/>
      <point x="720" y="-132"/>
      <point x="652" y="-132" type="curve" smooth="yes"/>
      <point x="584" y="-132"/>
      <point x="519" y="-178"/>
      <point x="519" y="-269" type="curve" smooth="yes"/>
      <point x="519" y="-321"/>
      <point x="550" y="-374"/>
      <point x="618" y="-392" type="curve"/>
      <point x="618" y="-471"/>
      <point x="594" y="-523"/>
      <point x="533" y="-578" type="curve"/>
    </contour>
  </outline>
</glyph>
<glyph name=".notdef" format="1">
  <advance width="1326"/>
  <outline>
    <contour>
      <point x="264" y="131" type="line"/>
      <point x="264" y="1283" type="line"/>
      <point x="1062" y="1283" type="line"/>
      <point x="1062" y="131" type="line"/>
    </contour>
    <contour>
      <point x="132" y="0" type="line"/>
      <point x="1194" y="0" type="line"/>
      <point x="1194" y="1414" type="line"/>
      <point x="132" y="1414" type="line"/>
    </contour>
  </outline>
</glyph>
